<?xml version="1.0" encoding="utf-8"?>
<!-- Generator: Adobe Illustrator 24.2.1, SVG Export Plug-In . SVG Version: 6.00 Build 0)  -->
<svg version="1.1" id="Layer_1" xmlns="http://www.w3.org/2000/svg" xmlns:xlink="http://www.w3.org/1999/xlink" x="0px" y="0px"
	 viewBox="0 0 193 87.8" style="enable-background:new 0 0 193 87.8;" xml:space="preserve">
<style type="text/css">
	.st0{enable-background:new    ;}
</style>
<g id="Layer_2_1_">
	<g id="Layer_1-2">
		<g id="RTkG9l">
			<path d="M23.8,15.6l-1.6-0.1c1.8-0.9,3.4-1.9,5-3.1l-4.8,16.8l0.2,0.1c0.6-1,1.1-2.1,1.8-3.1c1-1.8,2.2-3.3,3.7-4.7
				c0.4-0.4,0.9-0.7,1.4-1c1-0.5,2-1.1,3.1-0.4c1,0.8,0.7,2,0.3,3c-1,2.9-2.1,5.8-3.2,8.7c-0.1,0.4-0.3,0.8-0.5,1.4
				c1.2-0.4,1.8-1.5,2.7-2c-1,1.7-2.4,3.2-4,4.3c-0.9,0.5-1.4,0.2-1.5-0.8c0-0.8,0.2-1.5,0.5-2.2c1-2.8,2.1-5.6,3.1-8.5
				c0.2-0.5,0.6-1.2,0-1.7s-1.3,0-1.8,0.4c-1.1,0.8-2.1,1.8-2.8,2.9c-1.9,2.7-3.7,5.5-4.4,8.7c-0.4,1.6-1.5,0.8-2.5,1L23.8,15.6z"/>
			<path d="M3.3,35.4c1.8-0.1,2.1-1.4,2.4-2.8c1.2-6,2.5-11.9,3.8-17.9c0.1-0.3,0.1-0.7,0.1-1c-4.4-0.7-7.9,0-9.3,5.1L0,18.4
				c0.5-1.7,0.9-3.4,1.4-5c0.1-0.4,0.5-0.5,0.8-0.5H21c0.2,0,0.3,0.1,0.4,0.2l-0.7,5.3h-0.2c-0.1-0.8-0.1-1.6-0.2-2.4
				c-0.1-1.4-1.2-2.4-2.6-2.4c-1.4-0.1-2.8,0-4.2-0.1c-0.6,0-0.9,0.3-1,0.8c-1.3,6.4-2.7,12.7-4,19.1c-0.3,0.8,0.1,1.7,0.9,2
				c0.1,0.1,0.3,0.1,0.5,0.1L3.3,35.4z"/>
			<path d="M41,30.9c-0.4,1.6-1.3,3-2.5,4.1c-2.2,1.9-4.9,1-5.6-1.9c-1-4.2,1.9-10.5,5.6-12.6c1.7-0.9,3.6-0.8,4.4,0.3
				s0.4,3-1.1,4.3c-1.4,1.2-3.2,2-5,2.4c-0.8,0.1-1.4,0.8-1.4,1.6c-0.2,1.2-0.1,2.5,0.2,3.7c0.1,0.9,0.9,1.5,1.8,1.5
				c0.2,0,0.5-0.1,0.7-0.2C39.5,33.4,40.1,32.1,41,30.9z M35.7,27.5c2.7-1,4.5-2.3,5.2-4.8c0.2-0.7,0.4-1.6-0.4-2s-1.5,0.1-2.1,0.7
				C37.1,23.1,36.1,25.2,35.7,27.5L35.7,27.5z"/>
		</g>
		<g class="st0">
			<path d="M64.4,19.3c6.6,2.7,8.6,5.9,8.6,9.9c0,6.4-5.4,9.6-11.3,9.6c-4,0-7.5-1.2-9.9-3.5v-7.3h0.6l0.2,1
				c0.8,5.9,3.7,8.9,9.1,8.9c4.3,0,7.3-2.4,7.3-6.7c0-3-1.5-5.3-8.2-7.8c-6.6-2.5-8.5-5.4-8.5-9.2c0-5.3,4.1-9.4,10.9-9.4
				c3.7,0,6.7,1.4,8.3,3v6.9h-0.6l-0.1-1c-0.4-5-2.8-8.1-7.7-8.1c-4.2,0-6.6,2.6-6.6,6.3C56.3,14.6,57.8,16.6,64.4,19.3z"/>
		</g>
		<g class="st0">
			<path d="M86.3,16.3l-0.5,1.9h-5.5v14.9c0,2.2,0.7,3.2,2.4,3.2c1.3,0,2.5-0.4,3.5-1.3l0.3,0.3c-1.5,2-3.8,3.2-6,3.2
				c-3,0-4.8-1.7-4.8-5.1V18.2H73v-0.3c2.9-1.5,5.1-3.5,7-5.9h0.3v4.4H86.3z"/>
		</g>
		<g class="st0">
			<path d="M85.3,27.1c0-6.6,5-11.6,11.8-11.6c6.7,0,11.8,5,11.8,11.6s-5,11.6-11.8,11.6C90.3,38.7,85.3,33.7,85.3,27.1z M90.3,27.1
				c0,6.5,2.1,10.9,6.7,10.9c4.6,0,6.7-4.4,6.7-10.9s-2.2-10.9-6.7-10.9C92.5,16.2,90.3,20.7,90.3,27.1z"/>
		</g>
		<g class="st0">
			<path d="M116.3,36.1c0,0.8,0.4,1.3,1.6,1.3h0.6V38h-8.8v-0.6h0.5c1.1,0,1.5-0.5,1.5-1.3V20h-2.1v-0.3c2-0.9,4.4-2.3,6.3-4.2h0.4
				v4.4c1.7-2.3,3.5-4.3,6-4.3c2,0,3.2,1.3,3.2,2.7c0,1.4-0.7,2.1-2,2.1c-1.7,0-1.8-1.9-3.7-1.9c-1.1,0-2.3,0.5-3.4,2V36.1z"/>
		</g>
		<g class="st0">
			<path d="M126.8,47.5c0-0.9,0.7-1.6,1.5-1.6c1.4,0,1.2,1.4,3,1.4c1.7,0,2.9-1.5,5.4-7.8l0.2-0.4l-9.3-20.3c-0.6-1.4-1.2-2-2.3-2
				h-0.2v-0.6h8.9v0.6h-0.7c-1.3,0-1.3,0.8-0.9,1.9l6.6,15.2l5.6-15.1c0.4-1.2,0.3-2-0.9-2h-0.7v-0.6h4.8v0.6h-0.2
				c-1,0-1.6,0.4-2.2,2L138,38.5c-3.6,9.6-5.5,11-8.4,11C127.8,49.6,126.8,48.7,126.8,47.5z"/>
		</g>
		<g class="st0">
			<path d="M18.8,75.1h0.4c1.4,0,2.1-0.7,2.1-2V45.7c0-1.3-0.7-2-2.1-2h-0.4v-0.6h23.7l0.9,7.7h-0.6l-0.3-1c-1.1-4-2.5-5.9-6.5-5.9
				h-9.7v14.4h6.2c2.6,0,3.6-1.1,4-3.9l0.1-0.7h0.6v10h-0.6l-0.1-0.7c-0.4-2.7-1.4-3.8-4-3.8h-6.2v15.5h9.3c5.1,0,6.8-2.2,8.3-7.1
				l0.3-0.9h0.6L43,75.7H18.8V75.1z"/>
		</g>
		<g class="st0">
			<path d="M56.1,62.6l4.9-6.1c1.1-1.4,0.8-2-0.3-2h-0.8v-0.6H65v0.6h-0.1c-1,0-1.7,0.3-3.1,2.1l-5.3,6.6l7.3,9.9
				c1.3,1.8,1.8,2,2.5,2h0.2v0.6h-8.7v-0.6h0.8c0.9,0,1.2-0.7,0.3-2l-5.2-7L48,73c-1.1,1.4-0.8,2.1,0.4,2.1h0.7v0.6h-5v-0.6h0.1
				c1,0,1.8-0.7,3-2.1l6-7.5l-6.6-8.8c-1.3-1.7-1.7-2.2-2.6-2.2h-0.2v-0.6h8.9v0.6h-0.8c-1,0-1.3,0.7-0.2,2L56.1,62.6z"/>
		</g>
		<g class="st0">
			<path d="M69,63.4c0,6.3,3.1,10.3,8.3,10.3c3.1,0,5.4-1.3,6.9-3.8l0.4,0.2c-1.7,3.7-4.8,6.2-9.2,6.2c-6.6,0-11.2-4.6-11.2-11.2
				c0-7,4.8-11.9,11.8-11.9c5.3,0,8.7,3.2,8.7,6.4c0,1.2-0.8,2-1.8,2c-1.4,0-2-1.2-2-2.7c0-3.3-1.4-5-4.8-5
				C71.8,53.9,69,57.8,69,63.4z"/>
			<path d="M93.2,75.1h0.4v0.6H85v-0.6h0.5c1.1,0,1.5-0.5,1.5-1.3V46.9h-2.1v-0.4c2-0.9,4.5-2.3,6.3-4.3h0.4v15.1
				c2.3-2.3,5.3-4,8.5-4c4.5,0,7.5,3.1,7.5,7.4v13.1c0,0.8,0.4,1.3,1.5,1.3h0.5v0.6H101v-0.6h0.4c1.1,0,1.6-0.5,1.6-1.3V61.1
				c0-3.3-1.7-5.2-5-5.2c-2.4,0-4.9,0.9-6.3,2.1v15.9C91.6,74.6,92,75.1,93.2,75.1z"/>
			<path d="M118.2,54.5c-2.9,0-4.6,2-5.3,5.5c-0.2,1.2-0.6,1.6-1.5,1.6c-0.7,0-1-0.3-1-1c0-2.4,4.7-7.3,9.6-7.3c3.7,0,6,1.9,6,6
				v13.3c0,1.3,0.2,1.9,1.1,1.9c0.4,0,0.8-0.1,1.2-0.4l0.3,0.3c-0.9,1-2.2,1.7-3.9,1.7c-2,0-3.2-0.9-3.3-3.5
				c-2.8,2.6-4.9,3.5-7.1,3.5c-2.7,0-4-1.4-4-3.5c0-3.3,2.4-5.4,8.5-8.3l2.6-1.2v-4.8C121.4,55.6,120.5,54.5,118.2,54.5z
				 M117.2,73.7c1.3,0,2.6-0.5,4.2-1.7v-8.3l-0.9,0.6c-4.6,2.8-5.7,4.8-5.7,7C114.8,73,115.6,73.7,117.2,73.7z"/>
			<path d="M135.1,57.3c2.3-2.3,5.3-4.1,8.4-4.1c4.5,0,7.5,3.1,7.5,7.4v13.1c0,0.8,0.5,1.3,1.6,1.3h0.5v0.6h-8.6v-0.6h0.4
				c1.1,0,1.5-0.5,1.5-1.3V61.1c0-3.3-1.7-5.2-5-5.2c-2.4,0-4.9,0.9-6.3,2.1v15.9c0,0.8,0.4,1.3,1.6,1.3h0.4v0.6h-8.6v-0.6h0.5
				c1.1,0,1.5-0.5,1.5-1.3V57.6h-2.1v-0.3c2-0.9,4.4-2.3,6.3-4.2h0.4V57.3z"/>
		</g>
		<g class="st0">
			<path d="M162.4,53.3c1.3,0,2.6,0.3,3.7,0.7h6.7l-0.4,1.9H169c1.3,1.3,2,3,2,5c0,4.3-3.6,7.6-8.6,7.6c-1.2,0-2.3-0.2-3.3-0.6
				c-1.7,0.7-2.4,1.6-2.4,2.6c0,0.9,0.6,1.5,3.1,1.5h6.1c5.5,0,7.5,2.7,7.5,6.3c0,5-5.6,9.1-12.2,9.1c-6.4,0-8.9-2.6-8.9-5.7
				c0-2.2,1.9-4.3,5-5.8c-2.6-0.5-3.6-2.1-3.6-3.7c0-1.9,1.8-3.4,4.7-4.5c-2.7-1.3-4.5-3.7-4.5-6.7
				C153.9,56.5,157.5,53.3,162.4,53.3z M162.9,85.4c5.5,0,8.6-2.1,8.6-6c0-2.5-1.8-3.5-5.7-3.5h-6.5c-0.5,0-1,0-1.4-0.1
				c-2.1,1.4-2.6,3-2.6,4.4C155.3,83.2,157.5,85.4,162.9,85.4z M162.4,67.6c2.5,0,4.1-2.4,4.1-6.9s-1.6-6.9-4.1-6.9
				c-2.5,0-4.1,2.4-4.1,6.9S159.9,67.6,162.4,67.6z"/>
		</g>
		<g class="st0">
			<path d="M185.8,73.7c2.8,0,5.3-1.3,6.7-3.8l0.4,0.2c-1.8,3.8-5,6.3-9.6,6.3c-6.3,0-10.9-4.7-10.9-11.5c0-6.9,4.6-11.6,10.9-11.6
				c4.6,0,8.3,2.7,9.3,7.3l-15.1-0.2c-0.1,0.8-0.2,1.7-0.2,2.6C177.4,69.6,180.4,73.7,185.8,73.7z M177.8,59.5h9.1
				c0.5,0,0.6-0.2,0.6-0.6c0-2.7-1.2-5-4.3-5C180.8,53.9,178.6,55.9,177.8,59.5z"/>
		</g>
	</g>
</g>
</svg>
