<?xml version="1.0" standalone="no"?>
<!DOCTYPE svg PUBLIC "-//W3C//DTD SVG 20010904//EN"
 "http://www.w3.org/TR/2001/REC-SVG-20010904/DTD/svg10.dtd">
<svg version="1.0" xmlns="http://www.w3.org/2000/svg"
 width="512.000000pt" height="512.000000pt" viewBox="0 0 512.000000 512.000000"
 preserveAspectRatio="xMidYMid meet">
<metadata>
Created by potrace 1.14, written by Peter Selinger 2001-2017
</metadata>
<g transform="translate(0.000000,512.000000) scale(0.100000,-0.100000)"
fill="#000000" stroke="none">
<path d="M2530 3475 c-225 -45 -373 -178 -425 -380 -40 -155 -5 -300 101 -414
67 -73 173 -136 361 -215 320 -134 420 -227 431 -402 12 -182 -91 -326 -267
-374 -62 -16 -215 -14 -286 5 -187 50 -309 218 -340 469 -6 46 -11 56 -26 56
-18 0 -19 -11 -19 -200 l0 -199 53 -40 c67 -51 161 -95 262 -122 108 -30 337
-32 435 -5 176 48 302 145 367 282 34 72 37 85 41 189 7 168 -27 263 -130 366
-67 67 -121 102 -256 166 -352 165 -427 212 -478 298 -47 82 -48 219 0 313 50
97 140 156 258 170 203 24 354 -51 429 -213 29 -60 59 -188 59 -246 0 -19 5
-29 15 -29 13 0 15 28 15 194 l0 194 -60 41 c-144 96 -355 133 -540 96z"/>
<path d="M460 3438 c0 -15 -36 -331 -45 -396 -6 -38 -4 -43 10 -40 12 2 25 29
42 88 47 165 92 233 180 276 57 28 62 29 256 32 l198 4 -3 -815 c-3 -810 -3
-816 -24 -844 -15 -20 -34 -31 -67 -37 -28 -6 -47 -15 -47 -23 0 -10 53 -13
275 -13 238 0 275 2 275 15 0 9 -9 15 -24 15 -43 0 -86 22 -101 51 -13 24 -15
145 -15 839 l0 810 172 0 c221 0 271 -12 344 -84 54 -55 101 -152 125 -258 7
-36 17 -58 26 -58 17 0 17 12 -12 245 -14 110 -25 201 -25 203 0 1 -346 2
-770 2 -609 0 -770 -3 -770 -12z"/>
<path d="M3280 3435 c0 -9 9 -15 24 -15 43 0 86 -22 101 -51 22 -42 22 -1576
0 -1618 -15 -29 -58 -51 -101 -51 -15 0 -24 -6 -24 -15 0 -13 80 -15 663 -15
l663 0 43 223 c23 122 45 230 48 240 3 14 0 18 -12 15 -12 -2 -28 -33 -50 -94
-54 -153 -102 -225 -183 -279 -73 -48 -131 -55 -459 -55 l-303 0 0 421 0 420
218 -3 c203 -3 219 -4 252 -25 45 -28 75 -81 90 -160 8 -41 17 -63 26 -63 12
0 14 49 14 275 0 230 -2 275 -14 275 -9 0 -17 -16 -21 -42 -19 -108 -67 -179
-135 -198 -19 -5 -124 -10 -232 -10 l-198 0 0 396 0 395 328 -3 327 -3 52 -27
c83 -44 134 -127 185 -297 16 -55 38 -67 37 -19 0 18 -10 114 -22 213 l-22
180 -647 3 c-572 2 -648 0 -648 -13z"/>
</g>
</svg>
